<svg width="360" height="230" viewBox="0 0 360 230" fill="none" xmlns="http://www.w3.org/2000/svg">
<path d="M194.816 204.977V203.538H195.343V203.316H194.015V203.538H194.537V204.977H194.816ZM348.196 132.943H346.278C344.234 132.91 342.195 132.752 340.171 132.469C336.589 131.995 335.751 129.834 335.387 126.605C334.913 121.457 334.913 112.01 334.913 100.404V79.349C334.913 61.1596 334.913 57.81 335.156 53.9738C335.387 49.7875 336.346 47.7571 339.576 47.1624C340.76 46.9335 341.963 46.8131 343.169 46.8014H345.085V44.6506H309.548V46.8H311.455C312.906 46.7758 314.354 46.9348 315.765 47.2731C318.399 47.8797 319.591 49.9079 319.832 53.9752C320.075 57.8115 320.075 61.1629 320.075 79.3504V100.405C320.075 112.012 320.075 121.459 319.48 126.485C319.119 129.957 318.397 131.997 316.007 132.47C314.593 132.789 313.147 132.948 311.697 132.945H309.779V135.105H348.194L348.196 132.943ZM197.532 204.977V203.317H197.108L196.613 204.579L196.108 203.318H195.681V204.978H195.958V203.59H195.968L196.519 204.977H196.692L197.243 203.59H197.251V204.977L197.532 204.977ZM273.036 122.065C267.535 127.686 255.091 135.105 232.956 135.105H190V132.945H191.907C193.356 132.948 194.802 132.789 196.216 132.47C198.608 131.997 199.204 129.362 199.689 125.89C200.284 120.863 200.284 111.416 200.284 100.405V79.349C200.284 61.1596 200.284 57.81 200.042 53.9738C199.81 49.9065 198.851 47.9995 194.905 47.1624C193.362 46.8923 191.797 46.7714 190.231 46.8014H188.203V44.6506H226.486C241.444 44.6506 261.429 44.6506 274.469 58.2857C280.455 64.5024 286.076 74.4341 286.076 88.6729C286.076 103.755 279.738 115.241 273.036 122.065V122.065ZM270.048 92.1485C270.048 76.9474 263.697 67.1369 258.563 62.2318C247.55 51.7043 233.905 50.2719 224.579 50.2719C222.187 50.2719 217.755 50.6249 216.797 51.1096C215.714 51.5838 215.364 52.1785 215.364 53.5018C215.242 57.5691 215.242 67.975 215.242 77.4325V92.5011C215.242 105.188 215.364 114.404 215.485 116.675C215.606 119.673 215.766 124.137 216.797 125.769C218.429 128.354 223.024 130.553 232.471 130.553C244.673 130.553 252.809 128.161 259.996 121.944C267.645 115.366 270.048 104.472 270.048 92.1485V92.1485ZM179.269 220.59H167.037L169.735 216.272H177.997L180.69 211.96H163.367L160.674 216.272H164.636L159.248 224.911H181.646L190.055 211.465L193.063 216.272H190.57L187.874 220.591H195.756L198.449 224.911H203.542L190.052 203.319L179.269 220.59ZM20.9743 138.553C20.0504 139.545 19.0284 140.439 17.9238 141.224C16.1245 142.491 14.1994 143.57 12.1791 144.443L12.6311 145.975C15.8834 145.327 19.0031 144.135 21.859 142.45C24.7839 140.655 27.5557 138.621 30.1461 136.37C30.2782 136.259 30.4005 136.149 30.5322 136.039C36.7398 130.626 40.4974 124.917 42.2974 119.692C44.7005 112.99 45.1747 105.328 45.1747 98.5057C45.1747 92.5201 44.8137 86.7776 44.8137 81.6407V65.0573C44.8137 58.2671 44.8137 57.8151 45.056 53.9792C45.2988 49.7933 46.257 47.7622 49.4873 47.1672C50.6301 46.9329 51.7933 46.8121 52.9599 46.8065H55.1093V44.6506H17.8889V46.8H19.928C21.4903 46.7698 23.0516 46.8909 24.5907 47.161C28.5375 47.998 29.4987 49.9036 29.7385 53.9731C29.9478 57.4009 29.97 58.547 29.97 65.0512V93.8426C29.97 113.859 30.0566 125.583 24.4127 134.305C23.4167 135.836 22.2641 137.26 20.9735 138.553L20.9743 138.553ZM7 211.117H150.924L155.785 203.313H11.872L7 211.117ZM166.069 207.638H183.838L186.538 203.317H168.782L166.069 207.638ZM155.71 116.862H153.032L153.009 117.049C152.943 117.38 152.767 118.295 152.701 118.714C151.863 123.622 150.418 126.132 147.31 127.565C144.203 128.998 133.664 128.998 130.555 128.998C118.352 128.998 116.434 127.201 116.191 118.946C116.07 115.485 116.191 104.472 116.191 100.405V90.9493C116.191 90.2335 116.313 89.7593 116.908 89.7593C119.785 89.7593 137.147 89.8804 139.417 90.1123C143.837 90.597 145.513 92.3938 146.119 94.7859C146.373 96.2103 146.531 97.6501 146.593 99.0956V100.076L146.582 100.176H148.676L150.539 79.9378H148.662C148.662 79.9378 148.551 80.8178 146.987 82.1538C145.884 83.0243 144.197 83.3326 141.684 83.5309C138.928 83.7733 119.66 83.7733 117.026 83.7733C116.309 83.7733 116.188 83.3002 116.188 82.4621V52.1785C116.188 51.3415 116.43 50.9885 117.026 50.9885C119.418 50.9885 137.496 51.2643 139.535 51.4627C145.333 52.0249 146.711 53.623 147.547 55.7723C148.029 57.1578 148.271 58.6154 148.264 60.0824V61.7583H150.446V61.7467H150.457L152.133 43.2287H150.275L148.864 44.672H89.0318V46.8H91.0709C92.6329 46.7698 94.1946 46.8909 95.7336 47.161C99.6794 47.998 100.642 49.9036 100.881 53.9731C101.124 57.8089 101.124 61.16 101.124 79.3475V100.402C101.124 111.414 101.124 120.86 100.518 125.887C100.043 129.359 99.4476 131.994 97.0449 132.467C95.6343 132.786 94.1923 132.945 92.7461 132.942H90.8282V135.118H153.327L155.71 116.862ZM203.718 203.313L208.58 211.117H352.504L347.632 203.313H203.718ZM344.307 160.268V156.991H343.12V156.49H346.143V156.991H344.94V160.268H344.307ZM351.125 160.268V156.49H350.16L349.041 159.361L347.894 156.49H346.917V160.268H347.548V157.11H347.571L348.826 160.268H349.22L350.475 157.11H350.494V160.268H351.125ZM284.31 5.276H284.32L284.872 6.66258H285.044L285.596 5.276H285.604V6.66513H285.882V5.00487H285.457L284.966 6.26589L284.461 5.00487H284.032V6.66513H284.309L284.31 5.276ZM282.885 6.66513H283.164V5.22141H283.691V5.00487H282.361V5.22141H282.883L282.885 6.66513ZM275.498 19.2455C275.521 19.5658 275.542 19.8952 275.542 20.2376C275.556 22.534 274.665 24.7434 273.063 26.3884C272.82 26.6417 272.567 26.8404 272.324 27.0497H347.655L352.519 19.2455H275.498ZM79.8942 19.2565H7.01092L9.43616 23.1367V23.1476L11.8614 27.0497H83.4884C84.4103 27.0635 85.3256 26.8932 86.1808 26.5487C87.036 26.2043 87.8139 25.6926 88.4688 25.0437C88.9846 24.5254 89.4061 23.9212 89.7145 23.2583C90.1589 22.3174 90.3885 21.2894 90.3867 20.2489C90.3875 19.6593 90.3249 19.0719 90.1997 18.4958C89.9208 17.3771 89.3719 16.3438 88.6009 15.4865C88.491 15.3547 88.3036 15.156 88.0834 14.9137C87.3337 14.0981 86.1345 12.8414 85.8125 12.5215C85.773 12.4794 85.7496 12.4248 85.7462 12.3672C85.7456 12.3223 85.7577 12.2782 85.781 12.2399C85.8044 12.2016 85.8381 12.1706 85.8783 12.1507H96.1998V27.0497H104.136V12.1907H113.77V5.00487H82.7405C81.2124 5.08962 79.7369 5.5927 78.4752 6.45914C77.6834 7.04403 77.0355 7.80186 76.5808 8.67495C76.1261 9.54803 75.8766 10.5134 75.8513 11.4974C75.8779 12.6933 76.1918 13.8653 76.7666 14.9144C76.9395 15.2516 77.1424 15.5725 77.3729 15.8733C77.9566 16.5896 79.2024 17.8903 79.7865 18.4966C79.9732 18.6949 80.0955 18.8161 80.0955 18.8161C80.1428 18.8634 80.1697 18.9264 80.1719 18.993C80.17 19.0645 80.1398 19.1324 80.088 19.1818C80.0361 19.2312 79.9669 19.258 79.8953 19.2565H79.8942ZM133.916 18.4958L129.689 5.00487H117.337C117.337 5.00487 115.1 12.2992 113.205 18.4958C111.809 23.0581 110.592 27.0301 110.592 27.0483L118.852 27.0366L119.854 23.8515H127.447L128.472 27.0483H136.595L133.916 18.4958ZM121.816 17.8692L123.724 11.7507L125.627 17.8692H121.816ZM269.147 12.1441H280.169V5.00487H266C264.47 5.09081 262.993 5.59401 261.73 6.45987C260.939 7.04329 260.291 7.7994 259.837 8.67068C259.382 9.54197 259.132 10.5055 259.105 11.488C259.156 13.0687 259.684 14.5971 260.621 15.8715C261.402 16.8199 263.352 18.7939 263.352 18.7939C263.39 18.8307 263.416 18.8781 263.425 18.9299C263.435 18.9816 263.429 19.0352 263.408 19.0833C263.386 19.1315 263.351 19.1719 263.306 19.1992C263.261 19.2264 263.208 19.2392 263.156 19.2357H252.229C250.904 19.2357 250.808 18.7044 250.808 18.6389C250.808 18.5079 250.97 18.4223 250.97 18.4223C251.499 18.1219 252.006 17.7829 252.485 17.408C253.267 16.7992 253.893 16.0146 254.314 15.1181C254.734 14.2216 254.938 13.2384 254.907 12.2486C254.939 11.2407 254.739 10.2389 254.322 9.32073C253.905 8.40255 253.283 7.59256 252.503 6.95336C251.073 5.79219 249.314 5.1106 247.475 5.00523H231.902V27.0486H240.708V20.7322L245.39 25.384C247 26.982 249.654 27.0479 249.654 27.0479H266.741C267.664 27.0633 268.581 26.894 269.437 26.5499C270.293 26.2057 271.072 25.6938 271.727 25.0441C272.972 23.7557 273.66 22.0289 273.642 20.2373C273.684 18.489 273.044 16.7928 271.859 15.5072C271.37 14.9348 269.467 12.9426 269.079 12.5197C269.056 12.5022 269.037 12.4791 269.024 12.4524C269.012 12.4256 269.006 12.3962 269.008 12.3669C269.007 12.3199 269.019 12.2736 269.044 12.2338C269.069 12.194 269.106 12.1627 269.149 12.1438L269.147 12.1441ZM245.803 14.0206H240.794V11.2434H245.392C245.591 11.2251 245.791 11.2486 245.981 11.3122C246.17 11.3758 246.344 11.4783 246.492 11.6129C246.639 11.7476 246.757 11.9116 246.838 12.0945C246.919 12.2773 246.96 12.4749 246.96 12.6747C246.964 13.0015 246.849 13.3184 246.636 13.5665C246.424 13.8146 246.128 13.9767 245.804 14.0227L245.803 14.0206ZM186.772 27.0464L189.428 18.5748L192.013 27.0457H199.561C199.561 27.0457 206.345 5.02452 206.345 5.00269H197.886C197.886 5.00269 196.071 10.9977 196.071 11.0007L194.179 5.00487H184.94L183.251 11.0028L181.44 5.00487H172.396L179.294 27.0475L186.772 27.0464ZM222.479 5.00487H210.122C210.122 5.00487 203.376 27.0064 203.376 27.0483H211.63L212.644 23.8515H220.216L221.254 27.0483H229.389L222.479 5.00487ZM214.607 17.8692L216.503 11.7507L218.411 17.8692H214.607ZM158.335 19.2474C157.011 19.2361 156.922 18.7047 156.922 18.6392C156.922 18.6108 156.93 18.5829 156.943 18.5578C156.956 18.5327 156.975 18.5111 156.999 18.4947C157.025 18.4645 157.055 18.4387 157.088 18.4176C157.618 18.1152 158.126 17.7763 158.609 17.4033C159.389 16.7934 160.013 16.0084 160.433 15.1121C160.853 14.2157 161.056 13.2331 161.025 12.2438C161.053 11.2373 160.852 10.2376 160.435 9.32082C160.019 8.40406 159.398 7.59447 158.622 6.95373C157.188 5.79981 155.432 5.11891 153.595 5.00487H138.009L138.021 18.4958V27.0483H146.836V20.7322L151.528 25.384C153.125 26.9944 155.78 27.0479 155.78 27.0479H169.122V19.247L158.335 19.2474ZM151.93 14.0231H146.937L146.925 11.2438H151.524C151.722 11.2266 151.921 11.2509 152.109 11.3152C152.297 11.3794 152.47 11.4822 152.615 11.6169C152.761 11.7517 152.878 11.9154 152.957 12.0976C153.036 12.2798 153.076 12.4765 153.074 12.6751C153.08 13.0006 152.967 13.3171 152.756 13.5652C152.546 13.8134 152.252 13.9761 151.93 14.0231V14.0231ZM207.363 155.926C195.786 155.926 191.425 164.456 191.425 171.057C191.425 177.887 195.899 186.184 206.979 186.184C216.781 186.184 222.957 179.199 222.957 170.36C222.957 161.521 216.977 155.931 207.368 155.931L207.363 155.926ZM208.599 184.254C201.191 184.254 196.753 177.887 196.753 169.86C196.753 160.249 201.806 157.78 206.246 157.78C212.573 157.78 217.553 163.145 217.553 171.79C217.555 182.946 211.303 184.257 208.601 184.257L208.599 184.254ZM285.675 160.858C281.467 156.455 275.016 156.455 270.191 156.455H257.839V157.149H258.493C258.999 157.139 259.505 157.179 260.003 157.268C261.274 157.537 261.583 158.155 261.658 159.466C261.737 160.703 261.737 161.784 261.737 167.652V174.447C261.737 178.001 261.737 181.048 261.543 182.676C261.389 183.792 261.194 184.644 260.426 184.799C259.97 184.899 259.503 184.949 259.036 184.949H258.417V185.647H272.281C279.42 185.647 283.438 183.253 285.212 181.439C287.968 178.535 289.478 174.669 289.421 170.667C289.514 167.032 288.169 163.508 285.677 160.861L285.675 160.858ZM281.003 181.397C278.685 183.406 276.058 184.175 272.12 184.175C269.074 184.175 267.564 183.366 267.068 182.634C266.759 182.21 266.683 180.665 266.643 179.698C266.604 178.965 266.564 175.993 266.564 171.896V167.034C266.564 163.984 266.564 160.624 266.604 159.311C266.577 159.148 266.61 158.981 266.695 158.84C266.779 158.699 266.912 158.592 267.068 158.538C267.889 158.346 268.731 158.256 269.575 158.269C272.587 158.269 276.988 158.733 280.542 162.128C282.203 163.717 284.251 166.878 284.251 171.783C284.251 175.762 283.473 179.277 281.005 181.4L281.003 181.397ZM70.5743 180.457C70.5743 180.688 70.5743 180.844 70.547 181.404C70.547 181.635 70.4745 182.432 70.4305 182.84C70.4258 183.523 70.1976 184.186 69.7809 184.727C69.6224 184.845 69.4382 184.924 69.2434 184.959C68.803 185.048 68.3543 185.09 67.9052 185.08H67.197V185.776H87.3574L88.1511 179.894H87.2791C87.2791 179.894 87.202 180.346 87.1688 180.49C86.9039 182.068 86.4406 182.884 85.4365 183.347C84.6086 183.734 82.148 183.8 80.7451 183.811H80.0274C79.3232 183.818 78.6193 183.778 77.9206 183.689C76.1883 183.425 75.5474 182.751 75.4593 181.483C75.3381 179.64 75.3712 177.412 75.3712 174.586V167.83C75.3712 161.938 75.3712 160.845 75.4484 159.61C75.4619 159.298 75.5023 158.987 75.5696 158.683C75.659 158.333 75.8567 158.021 76.1343 157.791C76.412 157.561 76.7554 157.425 77.1152 157.402C77.614 157.314 78.1201 157.273 78.6266 157.281H79.0015V156.586H66.9877V157.281H67.3629C67.8699 157.273 68.3761 157.313 68.8751 157.402C70.155 157.678 70.4633 158.285 70.5411 159.61C70.5965 160.426 70.6066 161.187 70.6066 163.339C70.6197 164.609 70.6183 165.746 70.6183 167.83V174.586C70.6183 176.815 70.6183 178.846 70.5743 180.457V180.457ZM64.6887 184.954C64.1041 184.953 63.5206 184.901 62.9448 184.8C62.0615 184.601 60.8656 184.057 59.2847 180.597C56.6222 174.724 49.9815 158.98 48.9843 156.861C48.5647 155.964 48.3172 155.739 47.9377 155.739C47.518 155.739 47.2717 156.044 46.772 157.17L36.3391 181.4C35.5094 183.334 34.7233 184.648 32.8119 184.875C32.5863 184.897 32.3122 184.941 31.9421 184.954H31.0144V185.648H41.8269V184.954H40.5204C39.2884 184.932 38.9172 184.433 38.9172 183.749C38.9911 182.935 39.2047 182.141 39.549 181.4L41.7916 175.881C41.876 175.652 41.9597 175.577 42.1628 175.577H51.4303C51.5185 175.569 51.6068 175.59 51.6818 175.637C51.7567 175.684 51.8141 175.754 51.8452 175.837L55.1741 184.028C55.2213 184.108 55.2505 184.198 55.2596 184.291C55.2688 184.384 55.2576 184.477 55.2269 184.565C55.1963 184.653 55.1468 184.734 55.082 184.801C55.0172 184.868 54.9386 184.92 54.8516 184.954H54.1369V185.648H65.223V184.954H64.6887ZM50.6446 173.643H42.9929C42.8255 173.643 42.7815 173.532 42.8255 173.378L46.6512 163.877C46.6865 163.722 46.7702 163.537 46.903 163.537C47.0176 163.537 47.066 163.722 47.1013 163.877L50.8451 173.413C50.8961 173.533 50.8466 173.643 50.6439 173.643H50.6446ZM21.328 158.504C22.1006 158.504 27.9385 158.592 28.5892 158.658C30.466 158.835 30.9064 159.353 31.1819 160.049C31.3347 160.496 31.4133 160.966 31.4137 161.439V161.98H32.1182L32.6587 155.999H32.0626L31.5993 156.462H12.2908V157.146H12.9405C13.4482 157.138 13.9558 157.179 14.4559 157.268C15.7249 157.543 16.0339 158.151 16.111 159.464C16.1882 160.711 16.1882 161.792 16.1882 167.662V174.46C16.1882 178.013 16.1882 181.059 16.0008 182.681C15.8461 183.795 15.6478 184.645 14.8755 184.799C14.4191 184.902 13.9525 184.955 13.4845 184.954H12.8644V185.649L24.3516 185.638V184.946H23.734C23.2623 184.946 22.7925 184.894 22.3321 184.792C21.5598 184.637 21.3721 183.788 21.2068 182.663C21.098 181.607 21.0431 180.547 21.0416 179.487V179.266C21.0525 176.948 21.0525 174.973 21.0525 174.466V171.409C21.0525 171.177 21.0962 171.023 21.284 171.023C22.2109 171.023 25.6097 171.067 26.3488 171.144C27.7722 171.299 28.3137 171.883 28.5142 172.656C28.5932 173.116 28.6449 173.58 28.6689 174.047V174.389H29.3414L29.9485 167.856H29.3393C29.2214 168.127 29.0396 168.365 28.8094 168.551C28.2909 168.874 27.6877 169.036 27.0771 169.014C26.1945 169.091 22.1778 169.091 21.328 169.091C21.0966 169.091 21.0525 168.937 21.0525 168.673V158.89C21.0525 158.614 21.1297 158.504 21.328 158.504V158.504ZM166.94 185.263C167.373 185.682 167.833 186.113 168.253 186.113C168.606 186.113 168.758 185.76 168.758 184.909L169.177 160.556C169.221 158.405 169.543 157.629 170.612 157.279C171.025 157.187 171.447 157.146 171.87 157.157H172.642V156.462H161.959V157.157H162.749C163.436 157.126 164.124 157.208 164.784 157.401C165.7 157.787 166.053 158.515 166.083 160.865L166.47 178.2H166.282C165.62 177.583 160.411 172.021 157.796 169.395C152.158 163.799 146.287 157.51 145.823 157.013C145.174 156.318 144.819 155.81 144.401 155.81C144.014 155.81 143.903 156.351 143.903 157.124L143.55 179.977C143.518 183.331 143.363 184.445 142.359 184.754C141.94 184.862 141.511 184.925 141.079 184.942C140.913 184.953 140.759 184.953 140.616 184.953H139.997V185.649H150.679V184.953H150.04C149.36 184.973 148.681 184.88 148.031 184.677C147.259 184.412 146.751 183.408 146.674 180.396L146.255 164.186H146.365C147.06 164.925 151.353 169.748 155.558 173.907C159.568 177.892 164.512 182.946 166.94 185.263V185.263ZM94.3132 180.327C94.3132 180.559 94.3132 180.714 94.2863 181.274C94.2863 181.506 94.2142 182.302 94.1694 182.71C94.165 183.393 93.9368 184.056 93.5198 184.597C93.361 184.715 93.1768 184.795 92.9819 184.829C92.5418 184.919 92.093 184.96 91.6438 184.951H90.9377V185.646H111.098L111.892 179.764H111.02C111.02 179.764 110.943 180.216 110.91 180.36C110.645 181.938 110.181 182.754 109.178 183.218C108.35 183.604 105.889 183.67 104.486 183.682H103.769C103.064 183.689 102.36 183.648 101.661 183.56C99.9287 183.295 99.2882 182.621 99.2004 181.353C99.0789 179.51 99.1116 177.282 99.1116 174.457V167.703C99.1116 161.811 99.1116 160.718 99.1895 159.483C99.2019 159.17 99.2427 158.86 99.3107 158.556C99.4 158.206 99.5975 157.894 99.875 157.664C100.152 157.434 100.496 157.298 100.855 157.275C101.354 157.187 101.86 157.146 102.367 157.154H102.742V156.459H90.7274V157.154H91.1019C91.6085 157.146 92.115 157.186 92.614 157.275C93.8936 157.552 94.2018 158.158 94.2808 159.483C94.3354 160.299 94.3463 161.06 94.3463 163.212C94.3572 164.294 94.3572 165.728 94.3572 167.703V174.459C94.3572 176.688 94.3572 178.719 94.3132 180.327V180.327ZM118.021 182.668C117.869 183.788 117.676 184.638 116.901 184.791C116.445 184.893 115.98 184.945 115.513 184.943H114.895V185.646H135.061L135.83 179.754H134.963L134.956 179.815C134.92 179.994 134.887 180.173 134.857 180.352C134.586 181.935 134.12 182.745 133.117 183.208C132.114 183.671 128.714 183.67 127.711 183.67C123.774 183.67 123.155 183.093 123.076 180.426C123.037 179.31 123.076 175.757 123.076 174.444V171.393C123.076 171.161 123.116 171.009 123.308 171.009C124.236 171.009 129.838 171.048 130.571 171.123C131.997 171.279 132.537 171.859 132.736 172.63C132.818 173.09 132.869 173.555 132.889 174.021V174.37H133.564L134.166 167.84H133.561C133.561 167.84 133.525 168.124 133.02 168.555C132.503 168.861 131.91 169.015 131.31 168.999C130.42 169.077 124.204 169.077 123.354 169.077C123.122 169.077 123.083 168.925 123.083 168.654V158.89C123.083 158.62 123.161 158.506 123.354 158.506C124.125 158.506 129.959 158.595 130.616 158.659C132.487 158.84 132.932 159.356 133.202 160.049C133.357 160.496 133.436 160.966 133.433 161.44V161.981H134.137L134.678 156.006H134.077L133.622 156.471H114.315V157.157H114.973C115.477 157.148 115.981 157.188 116.478 157.275C117.751 157.545 118.061 158.161 118.138 159.473C118.216 160.711 118.216 161.792 118.216 167.661V174.454C118.217 178 118.217 181.049 118.021 182.67V182.668ZM294.819 182.668C294.831 183.362 294.592 184.037 294.144 184.568C293.588 184.884 292.947 185.015 292.311 184.943H291.692V185.646H311.858L312.627 179.754H311.761L311.753 179.815C311.731 179.922 311.675 180.217 311.654 180.352C311.383 181.935 310.918 182.745 309.914 183.208C308.911 183.671 305.512 183.67 304.508 183.67C300.571 183.67 299.952 183.093 299.874 180.426C299.835 179.31 299.874 175.757 299.874 174.444V171.393C299.874 171.161 299.913 171.009 300.105 171.009C301.033 171.009 306.635 171.048 307.368 171.123C308.794 171.279 309.335 171.859 309.533 172.63C309.615 173.09 309.666 173.555 309.686 174.021V174.37H310.362L310.963 167.84H310.358C310.358 167.84 310.322 168.124 309.818 168.555C309.301 168.861 308.708 169.015 308.107 168.999C307.218 169.077 301.001 169.077 300.151 169.077C299.92 169.077 299.881 168.925 299.881 168.654V158.89C299.881 158.62 299.959 158.506 300.151 158.506C300.922 158.506 306.756 158.595 307.413 158.659C309.284 158.84 309.729 159.356 309.999 160.049C310.155 160.496 310.233 160.966 310.231 161.44V161.981H310.934L311.479 156.002H310.872L310.417 156.468H291.113V157.154H291.771C292.275 157.145 292.779 157.184 293.275 157.272C294.548 157.541 294.858 158.157 294.935 159.469C295.014 160.707 295.014 161.788 295.014 167.657V174.45C295.015 178 295.015 181.049 294.819 182.67L294.819 182.668ZM347.885 184.951C347.521 184.944 347.159 184.902 346.803 184.828C346.51 184.779 346.222 184.705 345.942 184.607C344.611 184.097 343.422 183.273 342.478 182.205C341.82 181.508 341.114 180.713 340.372 179.843C338.584 177.733 336.919 175.6 334.482 172.544C335.321 172.158 336.111 171.673 336.836 171.101C337.99 170.198 338.908 169.028 339.511 167.692C340.113 166.356 340.382 164.893 340.294 163.43C340.228 161.348 339.505 159.248 337.743 158.017C335.644 156.554 332.714 156.516 330.265 156.457C330 156.444 329.744 156.444 329.479 156.444H316.384V157.128H316.759C316.759 157.128 318.092 157.163 318.512 157.238C319.734 157.486 320.132 158.28 320.198 159.446C320.286 160.692 320.286 161.773 320.286 167.645V174.444C320.286 177.994 320.286 181.054 320.088 182.673C319.933 183.785 319.748 184.637 318.962 184.792C318.675 184.863 318.383 184.911 318.088 184.936C317.898 184.945 317.752 184.945 317.576 184.945H316.958V185.638H328.243V184.945H327.624C327.156 184.94 326.69 184.888 326.233 184.79C326.068 184.756 325.914 184.683 325.784 184.576C325.654 184.469 325.553 184.332 325.487 184.177C325.449 184.099 325.415 184.019 325.386 183.938C325.244 183.528 325.152 183.103 325.113 182.671C324.96 181.209 324.889 179.739 324.9 178.268V173.865C324.893 173.823 324.897 173.78 324.91 173.74C324.923 173.699 324.945 173.662 324.976 173.632C325.006 173.602 325.043 173.579 325.083 173.566C325.124 173.553 325.167 173.549 325.209 173.556L329.964 173.551C330.092 173.538 330.222 173.555 330.343 173.601C330.463 173.647 330.571 173.721 330.658 173.816C331.163 174.399 332.988 177.106 334.534 179.225C336.521 181.954 337.912 183.706 339.413 184.656C339.545 184.744 339.687 184.819 339.819 184.898C340.829 185.437 341.783 185.636 343.947 185.636H348.084V184.942L347.885 184.951ZM331.699 171.175C329.634 171.943 326.214 171.625 325.487 171.47C325.408 171.455 325.33 171.432 325.254 171.404C324.979 171.294 324.9 171.139 324.9 170.707V158.98C324.9 158.671 324.979 158.517 325.254 158.437C326.506 158.283 327.769 158.234 329.029 158.293C330.594 158.347 332.602 158.587 333.954 159.412C334.489 159.775 334.935 160.253 335.259 160.812C335.584 161.37 335.779 161.994 335.831 162.638C336.325 166.184 335.35 169.821 331.699 171.175ZM256.948 184.954C256.584 184.947 256.221 184.905 255.865 184.831C255.572 184.781 255.284 184.708 255.004 184.61C253.672 184.1 252.483 183.276 251.539 182.208C250.818 181.438 250.116 180.651 249.434 179.846C247.645 177.736 245.981 175.603 243.544 172.547C244.383 172.161 245.174 171.676 245.899 171.104C247.053 170.201 247.97 169.031 248.573 167.695C249.175 166.359 249.444 164.896 249.356 163.433C249.289 161.351 248.567 159.251 246.806 158.02C244.707 156.557 241.775 156.519 239.327 156.459C239.062 156.447 238.806 156.447 238.541 156.447H225.445V157.131H225.821C225.821 157.131 227.154 157.166 227.573 157.241C228.796 157.489 229.193 158.283 229.26 159.449C229.348 160.694 229.348 161.775 229.348 167.648V174.447C229.348 177.997 229.348 181.056 229.149 182.676C228.995 183.788 228.81 184.64 228.023 184.795C227.736 184.866 227.444 184.914 227.149 184.939C226.959 184.948 226.814 184.948 226.638 184.948H226.019V185.641H237.304V184.948H236.686C236.218 184.943 235.752 184.891 235.295 184.793C235.13 184.759 234.976 184.686 234.846 184.579C234.716 184.472 234.614 184.335 234.549 184.18C234.511 184.102 234.477 184.022 234.448 183.941C234.306 183.531 234.213 183.106 234.173 182.674C234.022 181.211 233.951 179.742 233.962 178.271V173.868C233.956 173.826 233.959 173.783 233.972 173.743C233.985 173.702 234.008 173.665 234.038 173.635C234.068 173.605 234.105 173.582 234.145 173.569C234.186 173.556 234.229 173.552 234.271 173.559L239.026 173.554C239.154 173.541 239.284 173.558 239.404 173.604C239.525 173.65 239.633 173.724 239.719 173.819C240.224 174.402 242.05 177.109 243.596 179.228C245.583 181.956 246.973 183.709 248.475 184.659C248.607 184.747 248.748 184.822 248.881 184.901C249.891 185.44 250.846 185.639 253.009 185.639H257.146V184.945L256.948 184.954ZM240.761 171.175C238.695 171.943 235.275 171.625 234.549 171.47C234.469 171.454 234.391 171.432 234.315 171.404C234.041 171.294 233.962 171.139 233.962 170.707V158.98C233.962 158.671 234.041 158.517 234.315 158.437C235.567 158.283 236.829 158.234 238.09 158.293C239.655 158.347 241.664 158.587 243.016 159.412C243.55 159.775 243.996 160.254 244.321 160.812C244.645 161.37 244.841 161.994 244.892 162.638C245.386 166.184 244.411 169.821 240.761 171.175V171.175Z" fill="black"/>
</svg>
